<mxfile host="app.diagrams.net" modified="2024-05-21T06:41:35.751Z" agent="Mozilla/5.0 (Macintosh; Intel Mac OS X 10_15_7) AppleWebKit/537.36 (KHTML, like Gecko) Chrome/124.0.0.0 Safari/537.36" etag="qE7qYExg2jgQodHgif6u" version="24.4.0" type="github">
  <diagram name="第 1 页" id="ay8zSq0YFjXtsoNVwPrW">
    <mxGraphModel dx="954" dy="606" grid="1" gridSize="10" guides="1" tooltips="1" connect="1" arrows="1" fold="1" page="1" pageScale="1" pageWidth="1200" pageHeight="1600" math="0" shadow="0">
      <root>
        <mxCell id="0" />
        <mxCell id="1" parent="0" />
        <mxCell id="umRqDT9wv54C0nJAqI9t-1" value="" style="edgeStyle=orthogonalEdgeStyle;rounded=0;sketch=1;hachureGap=4;jiggle=2;curveFitting=1;orthogonalLoop=1;jettySize=auto;html=1;fontFamily=Architects Daughter;fontSource=https%3A%2F%2Ffonts.googleapis.com%2Fcss%3Ffamily%3DArchitects%2BDaughter;textShadow=1;" edge="1" parent="1" target="umRqDT9wv54C0nJAqI9t-5">
          <mxGeometry relative="1" as="geometry">
            <mxPoint x="500" y="85" as="sourcePoint" />
          </mxGeometry>
        </mxCell>
        <mxCell id="umRqDT9wv54C0nJAqI9t-2" style="edgeStyle=orthogonalEdgeStyle;rounded=0;sketch=1;hachureGap=4;jiggle=2;curveFitting=1;orthogonalLoop=1;jettySize=auto;html=1;exitX=0;exitY=0.5;exitDx=0;exitDy=0;entryX=0.5;entryY=0;entryDx=0;entryDy=0;fontFamily=Architects Daughter;fontSource=https%3A%2F%2Ffonts.googleapis.com%2Fcss%3Ffamily%3DArchitects%2BDaughter;textShadow=1;" edge="1" parent="1" target="umRqDT9wv54C0nJAqI9t-4">
          <mxGeometry relative="1" as="geometry">
            <mxPoint x="380" y="85" as="sourcePoint" />
          </mxGeometry>
        </mxCell>
        <mxCell id="umRqDT9wv54C0nJAqI9t-3" value="添加观察者addObserver" style="edgeLabel;html=1;align=center;verticalAlign=middle;resizable=0;points=[];sketch=1;hachureGap=4;jiggle=2;curveFitting=1;fontFamily=Architects Daughter;fontSource=https%3A%2F%2Ffonts.googleapis.com%2Fcss%3Ffamily%3DArchitects%2BDaughter;textShadow=1;" vertex="1" connectable="0" parent="umRqDT9wv54C0nJAqI9t-2">
          <mxGeometry x="-0.102" y="-3" relative="1" as="geometry">
            <mxPoint as="offset" />
          </mxGeometry>
        </mxCell>
        <mxCell id="umRqDT9wv54C0nJAqI9t-4" value="生命周期观察者&lt;br&gt;LifeCycleObserver" style="rounded=1;whiteSpace=wrap;html=1;sketch=1;hachureGap=4;jiggle=2;curveFitting=1;fontFamily=Architects Daughter;fontSource=https%3A%2F%2Ffonts.googleapis.com%2Fcss%3Ffamily%3DArchitects%2BDaughter;textShadow=1;" vertex="1" parent="1">
          <mxGeometry x="200" y="180" width="120" height="65" as="geometry" />
        </mxCell>
        <mxCell id="umRqDT9wv54C0nJAqI9t-5" value="具有生命周期能力&lt;br&gt;如AppCompontActivity" style="whiteSpace=wrap;html=1;fontFamily=Architects Daughter;rounded=1;sketch=1;hachureGap=4;jiggle=2;curveFitting=1;fontSource=https%3A%2F%2Ffonts.googleapis.com%2Fcss%3Ffamily%3DArchitects%2BDaughter;textShadow=1;" vertex="1" parent="1">
          <mxGeometry x="580" y="55" width="120" height="60" as="geometry" />
        </mxCell>
        <mxCell id="umRqDT9wv54C0nJAqI9t-6" style="edgeStyle=orthogonalEdgeStyle;rounded=0;sketch=1;hachureGap=4;jiggle=2;curveFitting=1;orthogonalLoop=1;jettySize=auto;html=1;exitX=0.5;exitY=0;exitDx=0;exitDy=0;entryX=0.5;entryY=1;entryDx=0;entryDy=0;fontFamily=Architects Daughter;fontSource=https%3A%2F%2Ffonts.googleapis.com%2Fcss%3Ffamily%3DArchitects%2BDaughter;" edge="1" parent="1" source="umRqDT9wv54C0nJAqI9t-8" target="umRqDT9wv54C0nJAqI9t-4">
          <mxGeometry relative="1" as="geometry" />
        </mxCell>
        <mxCell id="umRqDT9wv54C0nJAqI9t-7" value="实现类" style="edgeLabel;html=1;align=center;verticalAlign=middle;resizable=0;points=[];sketch=1;hachureGap=4;jiggle=2;curveFitting=1;fontFamily=Architects Daughter;fontSource=https%3A%2F%2Ffonts.googleapis.com%2Fcss%3Ffamily%3DArchitects%2BDaughter;" vertex="1" connectable="0" parent="umRqDT9wv54C0nJAqI9t-6">
          <mxGeometry x="0.1273" y="2" relative="1" as="geometry">
            <mxPoint as="offset" />
          </mxGeometry>
        </mxCell>
        <mxCell id="umRqDT9wv54C0nJAqI9t-8" value="" style="rounded=0;whiteSpace=wrap;html=1;sketch=1;hachureGap=4;jiggle=2;curveFitting=1;fontFamily=Architects Daughter;fontSource=https%3A%2F%2Ffonts.googleapis.com%2Fcss%3Ffamily%3DArchitects%2BDaughter;" vertex="1" parent="1">
          <mxGeometry x="155" y="300" width="205" height="130" as="geometry" />
        </mxCell>
        <mxCell id="umRqDT9wv54C0nJAqI9t-9" value="&lt;span style=&quot;color: rgb(64, 64, 64); font-size: 10px; letter-spacing: 0.7px; text-align: start; white-space-collapse: preserve; background-color: rgb(255, 255, 255);&quot;&gt;&lt;font style=&quot;font-size: 10px;&quot; face=&quot;Comic Sans MS&quot;&gt;DefaultLifecycleObserver&lt;/font&gt;&lt;/span&gt;" style="rounded=1;whiteSpace=wrap;html=1;sketch=1;hachureGap=4;jiggle=2;curveFitting=1;fontFamily=Architects Daughter;fontSource=https%3A%2F%2Ffonts.googleapis.com%2Fcss%3Ffamily%3DArchitects%2BDaughter;textShadow=0;fontSize=10;shadow=1;" vertex="1" parent="1">
          <mxGeometry x="165" y="320" width="190" height="40" as="geometry" />
        </mxCell>
        <mxCell id="umRqDT9wv54C0nJAqI9t-10" value="&lt;p style=&quot;font-size: 10px;&quot;&gt;&lt;span style=&quot;color: rgb(64, 64, 64); font-size: 10px; letter-spacing: 0.7px; text-align: start; white-space-collapse: preserve; background-color: rgb(255, 255, 255);&quot;&gt;&lt;font style=&quot;font-size: 10px;&quot; face=&quot;Comic Sans MS&quot;&gt;LifecycleEventObserver&lt;/font&gt;&lt;/span&gt;&lt;/p&gt;" style="rounded=1;whiteSpace=wrap;html=1;sketch=1;hachureGap=4;jiggle=2;curveFitting=1;fontFamily=Architects Daughter;fontSource=https%3A%2F%2Ffonts.googleapis.com%2Fcss%3Ffamily%3DArchitects%2BDaughter;textShadow=0;shadow=1;fontSize=10;" vertex="1" parent="1">
          <mxGeometry x="165" y="380" width="170" height="40" as="geometry" />
        </mxCell>
      </root>
    </mxGraphModel>
  </diagram>
</mxfile>
